<?xml version="1.0" encoding="iso-8859-1"?>
<!-- Generator: Adobe Illustrator 22.0.1, SVG Export Plug-In . SVG Version: 6.00 Build 0)  -->
<svg version="1.0" id="&#x421;&#x43B;&#x43E;&#x439;_1"
	 xmlns="http://www.w3.org/2000/svg" xmlns:xlink="http://www.w3.org/1999/xlink" x="0px" y="0px" viewBox="0 0 278.5 284"
	 style="enable-background:new 0 0 278.5 284;" xml:space="preserve">
<style type="text/css">
	.st0{fill:url(#SVGID_1_);}
	.st1{fill:none;stroke:#000000;stroke-miterlimit:10;}
	.st2{fill:none;stroke:#000000;stroke-width:2;stroke-miterlimit:10;}
	.st3{fill:none;}
	.st4{font-family:'MuseoSansCyrl-500';}
	.st5{font-size:19.1343px;}
	.st6{letter-spacing:1;}
</style>
<g>
	<radialGradient id="SVGID_1_" cx="137.9706" cy="141.6311" r="119.8949" gradientUnits="userSpaceOnUse">
		<stop  offset="0" style="stop-color:#F2BECD"/>
		<stop  offset="0.2342" style="stop-color:#F3C3D1;stop-opacity:0.8829"/>
		<stop  offset="0.4958" style="stop-color:#F6D0DB;stop-opacity:0.7521"/>
		<stop  offset="0.7693" style="stop-color:#FAE6EC;stop-opacity:0.6154"/>
		<stop  offset="1" style="stop-color:#FFFFFF;stop-opacity:0.5"/>
	</radialGradient>
	<ellipse class="st0" cx="138" cy="141.6" rx="119.7" ry="120.1"/>
	<g>
		<path class="st1" d="M67,89.9"/>
		<path class="st1" d="M65.8,111.4"/>
		<path class="st2" d="M231.6,116.8c-2.8,4.2-11.2,2.7-12.5,2.4c-6.3-1.2-6.9-4.3-15-7.2c-4.4-1.5-7.9-2.8-11.3-1.2
			c-3.7,1.7-7,6.8-5,10.8c1.7,3.4,6.6,4.5,10,3.6c4.9-1.3,6.9-6.7,7.5-8.4c2.7-7.4-0.7-13.2,0-26.3c0.1-1.1,0.2-3.2,1.7-5
			c2.5-2.9,7.2-3.3,10.8-2.2c2.6,0.8,4.6,3.4,5,6c0.6,3.8-2.2,6.9-2.5,7.2c-5.8,6.1-17.5,1.2-31.3,3.6c-4.6,0.8-8.1,3.6-11.4,5.8
			c-0.6,0.4-1.2-0.2-0.9-0.8c2.1-3.3,5.6-9.3,6.1-14.6c0.8-8.9-3.2-18.9,1.3-23.9c2.3-2.6,6.4-6.3,11.3-4.8c3.6,1.1,6.4,6.3,5,10.8
			c-0.9,3.1-3.6,5.2-6.3,6c-2.3,0.6-4.3,0.2-5,0c-2.1-0.5-19.8-4.5-27.5,1.2c-4.1,3.1-6.3,9.6-3.8,13.2c1.7,2.3,5.5,3.4,8.8,2.4
			c3.4-1,4.7-4.1,5-4.8c1.6-3.7,0.1-7.4-1.3-10.8c-2.5-6-5-6.5-7.5-13.2c-1.3-3.5-1.4-5.5-1.3-7.2c0.2-1.6,0.6-5.3,3.8-7.2
			c3-1.8,7.7-1.5,10,1.2c1.9,2.2,1.4,5,1.3,6C175.4,64.7,169,68,164,69c-3.9,0.7-4.2-0.5-8.8,0c-1.9,0.2-10.9,1.3-13.8,7.2
			c-1.5,3.2-1.4,8,1.3,9.6c2,1.2,4.7,0.1,5,0c2.1-0.8,3-2.5,3.8-3.6c1.4-2.1,2.4-5.2,1.3-12c0,0-2.9-17.2-13.9-24.1
			c-1.1-0.7-2.2-0.7-2.2-0.7c-0.8,0-1.5,0.3-2.2,0.9c-4.2,3.5-9.1,11.9-11.7,19.1c-1,2.7-2.8,8.2-1.3,14.4c1.2,4.6,3.2,5.7,3.8,6
			c2.3,1.1,5.7,0.7,7.5-1.2c2.6-2.7,0.6-7.1,0-8.4c-1.8-3.9-5.3-5.5-6.3-6c-1.2-0.5-2.4-0.8-5-1.2c-8.2-1.1-9.9,0.3-15-1.2
			c-4.5-1.3-7.7-3-8.8-7.2c-0.6-2.3,0.2-5.4,2.5-7.2c2.6-2,5.8-1.3,6.3-1.2c2.9,0.7,4.5,2.7,5,3.6c3.1,4.7,0.3,11.5-1.3,14.4
			c-2.5,4.8-4.5,5.5-6.3,10.8c-1,3-2.4,7.3,0,10.8c1.6,2.3,5.1,4.5,8.8,3.6c2.3-0.6,4.4-2.4,5-4.8c0.9-3.3-1.6-6.1-2.5-7.2
			c-1-1.1-3.5-3.6-10-4.8c-9.2-1.7-11.9,1.6-21.7-0.1c-6.1-1.1-7.9-2.9-8.8-4.1c-1.2-1.7-1.8-5.1-0.9-7.8c0-0.1,0.8-2.1,3.8-3.6
			c3.9-1.9,8.2,0.8,8.8,1.2c3.4,2.2,4.4,5.9,5,8.4c1.9,7.4-1,12.6,0,21.5c0.3,2.3,0.6,3.3,0.9,4c1.4,3.4,3.8,5.2,4.7,6.9
			c0.2,0.3-0.2,0.6-0.4,0.4c-2-1.3-6.8-3.9-12.7-5.3c-7.7-1.7-14.1-0.8-17.5,0c-7.5,0.9-13.7-2.6-15-7.2c-0.8-2.6-0.1-6.2,2.5-8.4
			c3.4-2.7,8.6-2.3,11.3,0c1.9,1.6,3.8,3.6,3.8,7.2c0,14.4-1.3,14.4-1.3,22.7c0,5.3,6.2,10.9,11.3,10.8c3.1-0.1,6.9-2.5,7.5-6
			c0.5-3.1-1.6-5.9-3.8-7.2c-1.4-0.9-2.8-1.1-3.8-1.2c-2.1-0.2-7.6-0.4-21.3,7.2c-2.6,1.4-4,2.3-6.3,2.4c-3.7,0.1-6.7-1.9-8.8-3.6"
			/>
		<path class="st2" d="M231.6,166.5c-2.8-4.2-11.2-2.7-12.5-2.4c-6.3,1.2-6.9,4.3-15,7.2c-4.4,1.5-7.9,2.8-11.3,1.2
			c-3.7-1.7-7-6.8-5-10.8c1.7-3.4,6.6-4.5,10-3.6c4.9,1.3,6.9,6.7,7.5,8.4c2.7,7.4-0.7,13.2,0,26.3c0.1,1.1,0.2,3.2,1.7,5
			c2.5,2.9,7.2,3.3,10.8,2.2c2.6-0.8,4.6-3.4,5-6c0.6-3.8-2.2-6.9-2.5-7.2c-5.8-6.1-17.5-1.2-31.3-3.6c-4.6-0.8-8.1-3.6-11.4-5.8
			c-0.6-0.4-1.2,0.2-0.9,0.8c2.1,3.3,5.6,9.3,6.1,14.6c0.8,8.9-3.2,18.9,1.3,23.9c2.3,2.6,6.4,6.3,11.3,4.8c3.6-1.1,6.4-6.3,5-10.8
			c-0.9-3.1-3.6-5.2-6.3-6c-2.3-0.6-4.3-0.2-5,0c-2.1,0.5-19.8,4.5-27.5-1.2c-4.1-3.1-6.3-9.6-3.8-13.2c1.7-2.3,5.5-3.4,8.8-2.4
			c3.4,1,4.7,4.1,5,4.8c1.6,3.7,0.1,7.4-1.3,10.8c-2.5,6-5,6.5-7.5,13.2c-1.3,3.5-1.4,5.5-1.3,7.2c0.2,1.6,0.6,5.3,3.8,7.2
			c3,1.8,7.7,1.5,10-1.2c1.9-2.2,1.4-5,1.3-6c-1.1-5.3-7.5-8.6-12.5-9.6c-3.9-0.7-4.2,0.5-8.8,0c-1.9-0.2-10.9-1.3-13.8-7.2
			c-1.5-3.2-1.4-8,1.3-9.6c2-1.2,4.7-0.1,5,0c2.1,0.8,3,2.5,3.8,3.6c1.4,2.1,2.4,5.2,1.3,12c0,0-2.9,17.2-13.9,24.1
			c-1.1,0.7-2.2,0.7-2.2,0.7c-0.8,0-1.5-0.3-2.2-0.9c-4.2-3.5-9.1-11.9-11.7-19.1c-1-2.7-2.8-8.2-1.3-14.4c1.2-4.6,3.2-5.7,3.8-6
			c2.3-1.1,5.7-0.7,7.5,1.2c2.6,2.7,0.6,7.1,0,8.4c-1.8,3.9-5.3,5.5-6.3,6c-1.2,0.5-2.4,0.8-5,1.2c-8.2,1.1-9.9-0.3-15,1.2
			c-4.5,1.3-7.7,3-8.8,7.2c-0.6,2.3,0.2,5.4,2.5,7.2c2.6,2,5.8,1.3,6.3,1.2c2.9-0.7,4.5-2.7,5-3.6c3.1-4.7,0.3-11.5-1.3-14.4
			c-2.5-4.8-4.5-5.5-6.3-10.8c-1-3-2.4-7.3,0-10.8c1.6-2.3,5.1-4.5,8.8-3.6c2.3,0.6,4.4,2.4,5,4.8c0.9,3.3-1.6,6.1-2.5,7.2
			c-1,1.1-3.5,3.6-10,4.8c-9.2,1.7-11.9-1.6-21.7,0.1c-6.1,1.1-7.9,2.9-8.8,4.1c-1.2,1.7-1.8,5.1-0.9,7.8c0,0.1,0.8,2.1,3.8,3.6
			c3.9,1.9,8.2-0.8,8.8-1.2c3.4-2.2,4.4-5.9,5-8.4c1.9-7.4-1-12.6,0-21.5c0.3-2.3,0.6-3.3,0.9-4c1.4-3.4,3.8-5.2,4.7-6.9
			c0.2-0.3-0.2-0.6-0.4-0.4c-2,1.3-6.8,3.9-12.7,5.3c-7.7,1.7-14.1,0.8-17.5,0c-7.5-0.9-13.7,2.6-15,7.2c-0.8,2.6-0.1,6.2,2.5,8.4
			c3.4,2.7,8.6,2.3,11.3,0c1.9-1.6,3.8-3.6,3.8-7.2c0-14.4-1.3-14.4-1.3-22.7c0-5.3,6.2-10.9,11.3-10.8c3.1,0.1,6.9,2.5,7.5,6
			c0.5,3.1-1.6,5.9-3.8,7.2c-1.4,0.9-2.8,1.1-3.8,1.2c-2.1,0.2-7.6,0.4-21.3-7.2c-2.6-1.4-4-2.3-6.3-2.4c-3.7-0.1-6.7,1.9-8.8,3.6"
			/>
		<rect x="28.7" y="134.7" class="st3" width="71.2" height="17.3"/>
		<text transform="matrix(1 0 0 1 37.193 148.2376)" class="st4 st5 st6">BEAD</text>
		<rect x="171.3" y="134.7" class="st3" width="75.9" height="17.3"/>
		<text transform="matrix(1 0 0 1 176.0163 148.2381)" class="st4 st5 st6">BEADS</text>
		<g>
			<g>
				<path d="M148.8,155.7v-0.1c3.3-1.6,5.6-4.7,5.6-9.4c0-6.6-4.6-10.7-10.8-10.7h-14c-0.2,0-0.4,0.2-0.4,0.4v12.5
					c0,0.2,0.2,0.4,0.5,0.4c0.6,0,1.2,0,1.8,0c0.2,0,0.4-0.2,0.4-0.4v-10c0-0.2,0.2-0.4,0.4-0.4h10.6c5.8,0,10.1,5.6,8.4,11.1
					c-1,3.4-3.9,5.5-7.8,5.5h-11.7c0.1,0,0.1,0,0.2,0c-0.1,0-0.1,0-0.2,0l0,0c-0.8,0-1.4,0-2.2,0c-0.2,0-0.4,0.2-0.4,0.4v22.9
					c0,0.2,0.2,0.4,0.4,0.4h14.6c6.9,0,11.9-4.7,11.9-11.8C156.1,161,153,156.9,148.8,155.7z M143.9,175.9h-11.7
					c-0.2,0-0.4-0.2-0.4-0.4v-18c0-0.2,0.2-0.4,0.4-0.4h11.6c5.5,0,9.5,3.7,9.5,9.5C153.3,172.4,149.7,175.9,143.9,175.9z"/>
			</g>
			<g>
				<path d="M146.2,139.7c-0.9-0.4-1.9-0.6-2.9-0.7c0.1,0.5,0.2,0.9,0.2,1.4c0,5.8-3.7,9.4-9.4,9.4h-11.9c-0.1,0-0.3-0.1-0.3-0.3
					v-18.3c0-0.1,0.1-0.3,0.3-0.3h11.8c3.4,0,6.1,1.2,7.7,3.6c1,0.2,2.1,0.2,3.2,0.3c0-0.1,0-0.1,0-0.2c-1.2-2.7-3.2-4.3-5.9-5.1
					v-0.1c3.3-1.6,5.6-4.7,5.6-9.4c0-6.6-4.6-10.7-10.8-10.7h-14.1c-0.1,0-0.3,0.1-0.3,0.3V152c0,0.1,0.1,0.3,0.3,0.3h14.7
					c6.9,0,11.9-4.7,11.9-11.8C146.2,140.2,146.2,140,146.2,139.7z M121.9,112.1c0-0.1,0.1-0.3,0.3-0.3h11c5,0,9,4.2,8.6,9.2
					c-0.4,4.6-3.6,7.5-8.1,7.5h-11.4c-0.1,0-0.3-0.1-0.3-0.3V112.1z"/>
			</g>
		</g>
	</g>
</g>
</svg>
