<svg width="19" height="19" xmlns="http://www.w3.org/2000/svg" xmlns:xlink="http://www.w3.org/1999/xlink" xmlns:svgjs="http://svgjs.com/svgjs"><svg xmlns="http://www.w3.org/2000/svg" width="19" height="19" viewBox="2 1.99 18 18" fill="#444"><path fill="#8F8F8F" paint-order="stroke fill markers" fill-rule="evenodd" d="M11 1.99a9 9 0 1 1 0 18 9 9 0 0 1 0-18zm-.073 1.75a7.27 7.27 0 1 1 0 14.538 7.27 7.27 0 0 1 0-14.538zm2.1 9.057H10.28a.685.685 0 0 1-.685-.685V7.943a.685.685 0 1 1 1.37 0v3.484h2.063a.685.685 0 0 1 0 1.37z"/></svg></svg>