<svg width="10" height="10" xmlns="http://www.w3.org/2000/svg" xmlns:xlink="http://www.w3.org/1999/xlink" xmlns:svgjs="http://svgjs.com/svgjs" viewBox="0.003 0 9.995 10"><svg xmlns="http://www.w3.org/2000/svg" width="10" height="10" viewBox="1.995 1.001 8.997 9.002" fill="#8F8F8F"><path fill="#8F8F8F" paint-order="stroke fill markers" fill-rule="evenodd" d="M1.997 5.785c1.123 0 2.18.438 2.973 1.232a4.193 4.193 0 0 1 1.233 2.984h1.731A5.946 5.946 0 0 0 1.997 4.06v1.725zm.002-3.059c4.004 0 7.262 3.264 7.262 7.277h1.731C10.992 5.039 6.958 1 2 1v1.725zm2.394 6.071c0 .66-.537 1.196-1.199 1.196s-1.199-.535-1.199-1.196c0-.66.537-1.195 1.2-1.195.661 0 1.198.535 1.198 1.195z"/></svg></svg>